<svg xmlns="http://www.w3.org/2000/svg" version="1.1">
<g transform="scale(800,800)">
<circle cx="0.542845602686615" cy="0.508956323235424" r=".001" />
<circle cx="0.330803779690665" cy="0.280562094502734" r=".001" />
<circle cx="0.638718833111017" cy="0.87266201896999" r=".001" />
<circle cx="0.343530972857788" cy="0.122670454712612" r=".001" />
<circle cx="0.0332074630918306" cy="0.187833507138521" r=".001" />
<circle cx="0.890937399600983" cy="0.000610795328135794" r=".001" />
<circle cx="0.511896522978521" cy="0.349791244219674" r=".001" />
<circle cx="0.00695041341577607" cy="0.462221348279961" r=".001" />
<circle cx="0.265406405990522" cy="0.00729728781064409" r=".001" />
<circle cx="8.60959466528755e-05" cy="0.0224954123414207" r=".001" />
<circle cx="0.762219389502111" cy="0.970115854685488" r=".001" />
<circle cx="0.2529253561876" cy="0.443327953555261" r=".001" />
<circle cx="0.616155879499477" cy="0.473937833039884" r=".001" />
<circle cx="0.731852283563153" cy="0.48195011252168" r=".001" />
<circle cx="0.0215072465724013" cy="0.842327080114345" r=".001" />
<circle cx="0.770358940757259" cy="0.796171745271913" r=".001" />
<circle cx="0.461480589820557" cy="0.88582622530393" r=".001" />
<circle cx="0.197388049002949" cy="0.973456085633252" r=".001" />
<circle cx="0.66137690885326" cy="0.657416247934734" r=".001" />
<circle cx="0.148958242422818" cy="0.336553894579275" r=".001" />
<circle cx="0.708565796141588" cy="0.582758870615976" r=".001" />
<circle cx="0.361266061418444" cy="0.139091118553189" r=".001" />
<circle cx="0.0267196948430986" cy="0.160290365961274" r=".001" />
<circle cx="0.534279930546401" cy="0.508923176652608" r=".001" />
<circle cx="0.429936813361966" cy="0.303131279013684" r=".001" />
<circle cx="0.567354336289167" cy="0.424654598370701" r=".001" />
<circle cx="0.829446759831189" cy="0.410405382406381" r=".001" />
<circle cx="0.396542597131226" cy="0.661513901801548" r=".001" />
<circle cx="0.685814669908584" cy="0.614024468644345" r=".001" />
<circle cx="0.554144314883825" cy="0.947434399336693" r=".001" />
<circle cx="0.935320862264621" cy="0.568019906402199" r=".001" />
<circle cx="0.874784124766332" cy="0.10001110640524" r=".001" />
<circle cx="0.641001680407729" cy="0.116438807899357" r=".001" />
<circle cx="0.392302034847841" cy="0.131896171241529" r=".001" />
<circle cx="0.875325979541532" cy="0.193648734735902" r=".001" />
<circle cx="0.00143877755795891" cy="0.81869930250226" r=".001" />
<circle cx="0.50940850547855" cy="0.144211672551137" r=".001" />
<circle cx="0.0867824798070096" cy="0.0012739609299139" r=".001" />
<circle cx="0.417909001746228" cy="0.0805220930015054" r=".001" />
<circle cx="0.228695995339645" cy="0.691840147363443" r=".001" />
<circle cx="0.692342083413738" cy="0.973006857345609" r=".001" />
<circle cx="0.551667508377886" cy="0.879180348115604" r=".001" />
<circle cx="0.449560544341825" cy="0.453333061871305" r=".001" />
<circle cx="0.484376239347423" cy="0.823063456875751" r=".001" />
<circle cx="0.715931631013039" cy="0.134865244003379" r=".001" />
<circle cx="0.28795807547554" cy="0.239980184820332" r=".001" />
<circle cx="0.228584733336039" cy="0.96128222169007" r=".001" />
<circle cx="0.0353984392577864" cy="0.696845049065296" r=".001" />
<circle cx="0.218577723335219" cy="0.294157790082721" r=".001" />
<circle cx="0.372871771309303" cy="0.925662398937966" r=".001" />
<circle cx="0.800540628935739" cy="0.269405111095111" r=".001" />
<circle cx="0.00119290424720155" cy="0.753683966587651" r=".001" />
<circle cx="0.29106727463412" cy="0.282383465657517" r=".001" />
<circle cx="0.303767015957117" cy="0.512512999079128" r=".001" />
<circle cx="0.9937207662059" cy="0.20939465786536" r=".001" />
<circle cx="0.808141868241702" cy="0.00193806895135751" r=".001" />
<circle cx="0.930005055244411" cy="0.312106327263251" r=".001" />
<circle cx="0.830635559909137" cy="0.152382789028145" r=".001" />
<circle cx="0.949165103748573" cy="0.389607302702572" r=".001" />
<circle cx="0.0068913371246957" cy="0.458857012238262" r=".001" />
<circle cx="0.229470191682683" cy="0.0944274810642014" r=".001" />
<circle cx="0.158175253471182" cy="0.322969208305871" r=".001" />
<circle cx="0.582091483917498" cy="0.883668099147783" r=".001" />
<circle cx="0.529388942933732" cy="0.796247320842262" r=".001" />
<circle cx="0.206313909729491" cy="0.569739249694948" r=".001" />
<circle cx="0.801775360418684" cy="0.975170964785725" r=".001" />
<circle cx="0.720256520583991" cy="0.118066635336149" r=".001" />
<circle cx="0.804469148818352" cy="0.645530069732182" r=".001" />
<circle cx="0.831272592757987" cy="0.228110419729319" r=".001" />
<circle cx="0.941317003791749" cy="0.0472725394410887" r=".001" />
<circle cx="0.919643642969721" cy="0.361362185793283" r=".001" />
<circle cx="0.0014726201620757" cy="0.929757318889294" r=".001" />
<circle cx="0.92107804007475" cy="0.543503009229909" r=".001" />
<circle cx="0.332511644221949" cy="0.340129705802163" r=".001" />
<circle cx="0.119007836562009" cy="0.281093063976229" r=".001" />
<circle cx="0.895748671146205" cy="0.731979255554187" r=".001" />
<circle cx="0.03600462253846" cy="0.875122557331281" r=".001" />
<circle cx="0.707570803681488" cy="0.303191269200433" r=".001" />
<circle cx="0.362189434627272" cy="0.879211708762185" r=".001" />
<circle cx="0.13987383348859" cy="0.917249686675568" r=".001" />
<circle cx="0.422800845222017" cy="0.299555500309992" r=".001" />
<circle cx="0.125320560045349" cy="0.368106293378851" r=".001" />
<circle cx="0.790742126338234" cy="0.742843600588103" r=".001" />
<circle cx="0.187329330051821" cy="0.0926375509513591" r=".001" />
<circle cx="0.344710639383752" cy="0.228948761094557" r=".001" />
<circle cx="0.915444650357056" cy="0.0848301445458688" r=".001" />
<circle cx="0.989303160030534" cy="0.954394665444298" r=".001" />
<circle cx="0.0753248464076215" cy="0.730958561790196" r=".001" />
<circle cx="0.848297518513338" cy="0.343338241668476" r=".001" />
<circle cx="0.702360333188675" cy="0.464556745451439" r=".001" />
<circle cx="0.552266532604353" cy="0.193508387425183" r=".001" />
<circle cx="0.0596018676303878" cy="0.573980155021466" r=".001" />
<circle cx="0.131042545718035" cy="0.319334470319461" r=".001" />
<circle cx="0.491301472985679" cy="0.61446849456312" r=".001" />
<circle cx="0.432702768586683" cy="0.533100413040259" r=".001" />
<circle cx="0.923144879249715" cy="0.752141977682008" r=".001" />
<circle cx="0.194194872214897" cy="0.0727252181879692" r=".001" />
<circle cx="0.952503621787297" cy="0.961209367920397" r=".001" />
<circle cx="0.23310170486987" cy="0.182674992988481" r=".001" />
<circle cx="0.243202695461232" cy="0.41037321670759" r=".001" />
<circle cx="0.392111419194553" cy="0.749156462068186" r=".001" />
<circle cx="0.848956186212984" cy="0.103150783745356" r=".001" />
<circle cx="0.102397509642049" cy="0.964354169599133" r=".001" />
<circle cx="0.400463908736352" cy="0.00133771288573072" r=".001" />
<circle cx="0.822330087822198" cy="0.494904632914569" r=".001" />
<circle cx="0.00190070801056201" cy="0.60593387238783" r=".001" />
<circle cx="0.314867976525097" cy="0.620527180642327" r=".001" />
<circle cx="0.783175767471587" cy="0.918792195699005" r=".001" />
<circle cx="0.239878694641423" cy="0.118854652007087" r=".001" />
<circle cx="0.447175575722081" cy="0.861435856683137" r=".001" />
<circle cx="0.923882947435732" cy="0.146754112712259" r=".001" />
<circle cx="0.464191100818024" cy="0.252928389983872" r=".001" />
<circle cx="0.324829642146486" cy="0.117149819228274" r=".001" />
<circle cx="0.734849378861792" cy="0.467222310300549" r=".001" />
<circle cx="0.107109530185387" cy="0.219534399886342" r=".001" />
<circle cx="0.610373222331614" cy="0.601316102238307" r=".001" />
<circle cx="0.683868146788686" cy="0.173581180405222" r=".001" />
<circle cx="0.717112265823896" cy="0.451711124160603" r=".001" />
<circle cx="0.949664589334464" cy="0.445777325863347" r=".001" />
<circle cx="0.0214840565848782" cy="0.53509433890121" r=".001" />
<circle cx="0.924649659182425" cy="0.171635563169644" r=".001" />
<circle cx="0.062768932583662" cy="0.0696880734993854" r=".001" />
<circle cx="0.447837801316627" cy="0.599288250283664" r=".001" />
<circle cx="0.489626045380671" cy="0.534303865834794" r=".001" />
<circle cx="0.505979923776611" cy="0.95822303328913" r=".001" />
<circle cx="0.441704019078752" cy="0.823477940657916" r=".001" />
<circle cx="0.458391377348722" cy="0.229310842434828" r=".001" />
<circle cx="0.120503702708614" cy="0.440440033537065" r=".001" />
<circle cx="0.837358937757021" cy="0.58445608592271" r=".001" />
<circle cx="0.247032583995985" cy="0.826989211174755" r=".001" />
<circle cx="0.167075370141976" cy="0.0271421680454154" r=".001" />
<circle cx="0.364216000084834" cy="0.173159082884091" r=".001" />
<circle cx="0.278187881445238" cy="0.515454448753871" r=".001" />
<circle cx="0.919069617949202" cy="0.623014423259953" r=".001" />
<circle cx="0.404880292930091" cy="0.11906403737045" r=".001" />
<circle cx="0.265986076415626" cy="0.0798207927301675" r=".001" />
<circle cx="0.269945904959801" cy="0.349000936454132" r=".001" />
<circle cx="0.63396649543888" cy="0.0885823132284784" r=".001" />
<circle cx="0.801681591829851" cy="0.00173105852714315" r=".001" />
<circle cx="0.366180079025664" cy="0.951589393194034" r=".001" />
<circle cx="0.823901468405186" cy="0.911975358430311" r=".001" />
<circle cx="0.491932578484107" cy="0.118821961971243" r=".001" />
<circle cx="0.33431332504988" cy="0.305518616494126" r=".001" />
<circle cx="0.754162254991396" cy="0.436103730959239" r=".001" />
<circle cx="0.98243074535424" cy="0.213845044308613" r=".001" />
<circle cx="0.368280497317539" cy="0.366713210041844" r=".001" />
<circle cx="0.299741214963166" cy="0.261083811847229" r=".001" />
<circle cx="0.00119787244202278" cy="0.304266735416796" r=".001" />
<circle cx="0.673773411889702" cy="0.628092114108654" r=".001" />
<circle cx="0.275103946033976" cy="0.434261671437163" r=".001" />
<circle cx="0.123888051558982" cy="0.524072453485033" r=".001" />
<circle cx="0.171557679816143" cy="0.787493296978248" r=".001" />
<circle cx="0.58806395597043" cy="0.845309182560555" r=".001" />
<circle cx="0.422217143583179" cy="0.560050738649927" r=".001" />
<circle cx="0.702797238289822" cy="0.610814889997229" r=".001" />
<circle cx="0.353059068172367" cy="0.991794731387266" r=".001" />
<circle cx="0.316734454387959" cy="0.595796749518229" r=".001" />
<circle cx="0.163055422997541" cy="0.0287870340713781" r=".001" />
<circle cx="0.165203083828988" cy="0.540033524508956" r=".001" />
<circle cx="0.452202124931713" cy="0.216367066357911" r=".001" />
<circle cx="0.00178925770790137" cy="0.874847090921975" r=".001" />
<circle cx="0.664556724245255" cy="0.240369825322155" r=".001" />
<circle cx="0.044209255754442" cy="0.090334671494233" r=".001" />
<circle cx="0.100844441455219" cy="0.856889449367678" r=".001" />
<circle cx="0.29703639105961" cy="0.420501027263526" r=".001" />
<circle cx="0.449614078599591" cy="0.619178984589531" r=".001" />
<circle cx="0.850659624674552" cy="0.240120190505891" r=".001" />
<circle cx="0.137781560139725" cy="0.45752803793345" r=".001" />
<circle cx="0.825475348746355" cy="0.491415509006657" r=".001" />
<circle cx="0.926509484914913" cy="0.318690134549122" r=".001" />
<circle cx="0.951918539811363" cy="0.154451367525141" r=".001" />
<circle cx="0.995681403824985" cy="0.390679796198491" r=".001" />
<circle cx="0.458084657930588" cy="0.571581520916482" r=".001" />
<circle cx="0.641809890700056" cy="0.982189685949187" r=".001" />
<circle cx="0.477160389557003" cy="0.678124077133887" r=".001" />
<circle cx="0.735263158630968" cy="0.589779684158593" r=".001" />
<circle cx="0.257528043170968" cy="0.488983369750571" r=".001" />
<circle cx="0.271526303379698" cy="0.65727653443566" r=".001" />
<circle cx="0.693901113018871" cy="0.670190821212927" r=".001" />
<circle cx="0.93927554186595" cy="0.738033788355516" r=".001" />
<circle cx="0.883841720870155" cy="0.57689198226501" r=".001" />
<circle cx="0.299907369634337" cy="0.330001246696021" r=".001" />
<circle cx="0.930387141069208" cy="0.672391802369148" r=".001" />
<circle cx="0.31652469914604" cy="0.324730005365829" r=".001" />
<circle cx="0.266280222801189" cy="0.929336402988525" r=".001" />
<circle cx="0.926059073209512" cy="0.443907628500149" r=".001" />
<circle cx="0.654590057914692" cy="0.342433752794861" r=".001" />
<circle cx="0.660147287366751" cy="0.0208169519132966" r=".001" />
<circle cx="0.338582515349206" cy="0.506399243717794" r=".001" />
<circle cx="0.985652514084887" cy="0.199905629716262" r=".001" />
<circle cx="0.762938086701684" cy="0.802781801762379" r=".001" />
<circle cx="0.754519612667249" cy="0.896730837932914" r=".001" />
<circle cx="0.889324674234107" cy="0.830333399187083" r=".001" />
<circle cx="0.578302044393819" cy="0.39481860388009" r=".001" />
<circle cx="0.480548315172729" cy="0.556606227456982" r=".001" />
<circle cx="0.9316390050279" cy="0.107989101414738" r=".001" />
<circle cx="0.255783186979816" cy="0.280098905865316" r=".001" />
<circle cx="0.650766348984046" cy="0.049612002395385" r=".001" />
<circle cx="0.529606389889967" cy="0.904752501351382" r=".001" />
<circle cx="0.240508923641752" cy="0.807858666355621" r=".001" />
<circle cx="0.672740767895736" cy="0.539770383333718" r=".001" />
<circle cx="0.00194537101010539" cy="0.102724645943916" r=".001" />
<circle cx="0.38367322004105" cy="0.861079595824819" r=".001" />
<circle cx="0.612004599700551" cy="0.211445747646984" r=".001" />
<circle cx="0.576924382836044" cy="0.585367060197143" r=".001" />
<circle cx="0.0477162954481223" cy="0.999587778183049" r=".001" />
<circle cx="0.493081044343217" cy="0.408238088229908" r=".001" />
<circle cx="0.976891335735953" cy="0.931843189226747" r=".001" />
<circle cx="0.0632729935024408" cy="0.705008948982226" r=".001" />
<circle cx="0.211972115923583" cy="0.0963311693090603" r=".001" />
<circle cx="0.340214027061126" cy="0.561936157110367" r=".001" />
<circle cx="0.0261128931565189" cy="0.936510384323547" r=".001" />
<circle cx="0.990990343555982" cy="0.438904296975466" r=".001" />
<circle cx="0.994796622742722" cy="0.413839599564291" r=".001" />
<circle cx="0.0633513616540888" cy="0.11896812877275" r=".001" />
<circle cx="0.190162712121147" cy="0.730849889121366" r=".001" />
<circle cx="0.945345921303616" cy="0.998525002454386" r=".001" />
<circle cx="0.609529962518149" cy="0.427737115266275" r=".001" />
<circle cx="0.173883673068321" cy="0.152756794915305" r=".001" />
<circle cx="0.45829602038955" cy="0.665983903672689" r=".001" />
<circle cx="0.375445046225057" cy="0.678428248264879" r=".001" />
<circle cx="0.577549232279335" cy="0.260540512436968" r=".001" />
<circle cx="0.58409632218984" cy="0.289887284517093" r=".001" />
<circle cx="0.858536200290413" cy="0.589022856388333" r=".001" />
<circle cx="0.748696839105609" cy="0.00953416719787015" r=".001" />
<circle cx="0.822908883458592" cy="0.854137565610195" r=".001" />
<circle cx="0.761346028473628" cy="0.552086835690474" r=".001" />
<circle cx="0.775874095447843" cy="0.406657390932047" r=".001" />
<circle cx="0.48946664804058" cy="0.919270916118421" r=".001" />
<circle cx="0.618556023643162" cy="0.443909581895447" r=".001" />
<circle cx="0.329340039264697" cy="0.0803313757001121" r=".001" />
<circle cx="0.798754251406759" cy="0.516694116848036" r=".001" />
<circle cx="0.802407315076895" cy="0.961850098300403" r=".001" />
<circle cx="0.201656016484048" cy="0.930231922876153" r=".001" />
<circle cx="0.84835988682666" cy="0.371236379851595" r=".001" />
<circle cx="0.452887396797816" cy="0.477194547749512" r=".001" />
<circle cx="0.220221480757548" cy="0.761037035919855" r=".001" />
<circle cx="0.997634092652202" cy="0.548750199420546" r=".001" />
<circle cx="0.823654586593467" cy="0.750616042452819" r=".001" />
<circle cx="0.00662378418251919" cy="0.729165713396405" r=".001" />
<circle cx="0.861114936334506" cy="0.16813195716017" r=".001" />
<circle cx="0.17085899723271" cy="0.577743906983251" r=".001" />
<circle cx="0.214860942659886" cy="0.685071355551244" r=".001" />
<circle cx="0.513567322219128" cy="0.666289994490363" r=".001" />
<circle cx="0.932958845915696" cy="0.279479724882208" r=".001" />
<circle cx="0.654465011447581" cy="0.689053331475726" r=".001" />
<circle cx="0.849191439026402" cy="0.18969425365016" r=".001" />
<circle cx="0.395805743289994" cy="0.85397079151516" r=".001" />
<circle cx="0.979186473311703" cy="0.380677296312484" r=".001" />
<circle cx="0.902628999097782" cy="0.948459618283671" r=".001" />
<circle cx="0.177263007614119" cy="0.0284515451070746" r=".001" />
<circle cx="0.165077363230946" cy="0.740009701450639" r=".001" />
<circle cx="0.725707860847795" cy="0.0887496657025508" r=".001" />
<circle cx="0.355689440615134" cy="0.402071959509534" r=".001" />
<circle cx="0.752822776565313" cy="0.623538913417363" r=".001" />
<circle cx="0.329390302303349" cy="0.770519938688317" r=".001" />
<circle cx="0.158633719906906" cy="0.448916604412688" r=".001" />
<circle cx="0.00118147301146898" cy="0.647189917018245" r=".001" />
<circle cx="0.666259714845257" cy="0.59097183408629" r=".001" />
<circle cx="0.139055349049467" cy="0.427219798976772" r=".001" />
<circle cx="0.639357605469204" cy="0.509174075373039" r=".001" />
<circle cx="0.558498323338238" cy="0.779272961364292" r=".001" />
<circle cx="0.916673901660932" cy="0.601906815292537" r=".001" />
<circle cx="0.588788961171755" cy="0.336039027724944" r=".001" />
<circle cx="0.446553259413864" cy="0.943765761375317" r=".001" />
<circle cx="0.232978636879533" cy="0.631063369178271" r=".001" />
<circle cx="0.368407961712268" cy="0.832662933046365" r=".001" />
<circle cx="0.00114882100766884" cy="0.262010016491466" r=".001" />
<circle cx="0.123901819848673" cy="0.625721709148195" r=".001" />
<circle cx="0.952751911581895" cy="0.275572684091038" r=".001" />
<circle cx="0.505328019791524" cy="0.611140194045518" r=".001" />
<circle cx="0.674474788223787" cy="0.501704813988162" r=".001" />
<circle cx="0.407871406233088" cy="0.658992653669515" r=".001" />
<circle cx="0.285666565498797" cy="0.351556008773578" r=".001" />
<circle cx="0.669774340746432" cy="0.993307821932021" r=".001" />
<circle cx="0.0204505109204227" cy="0.912018000425824" r=".001" />
<circle cx="0.311629402560389" cy="0.272310149668442" r=".001" />
<circle cx="0.513657874308063" cy="0.888262458170722" r=".001" />
<circle cx="0.852984633322752" cy="0.910662125152967" r=".001" />
<circle cx="0.583102056703066" cy="0.572884536530402" r=".001" />
<circle cx="0.14917557336452" cy="0.149754199770683" r=".001" />
<circle cx="0.385002129570307" cy="0.955664166506843" r=".001" />
<circle cx="0.389925808901825" cy="0.218030167128447" r=".001" />
<circle cx="0.151238002945572" cy="0.871560761057729" r=".001" />
<circle cx="0.898041959817281" cy="0.227111631239893" r=".001" />
<circle cx="0.147039737722235" cy="0.647030303141641" r=".001" />
<circle cx="0.103852798648791" cy="0.440822021929719" r=".001" />
<circle cx="0.455536525835154" cy="0.617385773134906" r=".001" />
<circle cx="0.319413315681462" cy="0.718460035768402" r=".001" />
<circle cx="0.104637035195434" cy="0.612626614854157" r=".001" />
<circle cx="0.544545845087061" cy="0.271810961170772" r=".001" />
<circle cx="0.508427446356645" cy="0.648479498256471" r=".001" />
<circle cx="0.68127965538557" cy="0.154013649270382" r=".001" />
<circle cx="0.259226907551277" cy="0.606485074633135" r=".001" />
<circle cx="0.969060496614691" cy="0.899747480316378" r=".001" />
<circle cx="0.740327616425699" cy="0.275622799263481" r=".001" />
<circle cx="0.763240298985753" cy="0.508119111130583" r=".001" />
<circle cx="0.549088613022558" cy="0.282602279551845" r=".001" />
<circle cx="0.624957345978277" cy="0.065589635109788" r=".001" />
<circle cx="0.244393951811528" cy="0.823604056133625" r=".001" />
<circle cx="0.0608366112805676" cy="0.0753906048617523" r=".001" />
<circle cx="0.833597523352505" cy="0.782589302805526" r=".001" />
<circle cx="0.713361366219988" cy="0.336858721323168" r=".001" />
<circle cx="0.767153730989829" cy="0.476605700910504" r=".001" />
<circle cx="0.752798444844192" cy="0.613325444623882" r=".001" />
<circle cx="0.0424958073217674" cy="0.493709767489527" r=".001" />
<circle cx="0.132833510113375" cy="0.466605893533924" r=".001" />
<circle cx="0.563817091566502" cy="0.611743256600185" r=".001" />
<circle cx="0.0463471092437295" cy="0.411342734558389" r=".001" />
<circle cx="0.845805394854022" cy="0.724406972196313" r=".001" />
<circle cx="0.73492005160357" cy="0.860701881130026" r=".001" />
<circle cx="0.874771968412798" cy="0.813658491363178" r=".001" />
<circle cx="0.973705501206215" cy="0.369039290390361" r=".001" />
<circle cx="0.79082487209082" cy="0.943834961009436" r=".001" />
<circle cx="0.358377960267507" cy="0.115638522247465" r=".001" />
<circle cx="0.573707030152516" cy="0.803107361829937" r=".001" />
<circle cx="0.577223843000954" cy="0.870558575252005" r=".001" />
<circle cx="0.0997222703262928" cy="0.662572492972608" r=".001" />
<circle cx="0.351457412309788" cy="0.308757398842957" r=".001" />
<circle cx="0.488003483141878" cy="0.583772481868031" r=".001" />
<circle cx="0.691037288802821" cy="0.227319964180396" r=".001" />
<circle cx="0.224556024192349" cy="0.993612928611988" r=".001" />
<circle cx="0.640255354109815" cy="0.223797418605031" r=".001" />
<circle cx="0.998481924582702" cy="0.214068915629092" r=".001" />
<circle cx="0.203929471302136" cy="0.727957214242679" r=".001" />
<circle cx="0.816126686984983" cy="0.42588711358983" r=".001" />
<circle cx="0.656036846835821" cy="0.976879751906623" r=".001" />
<circle cx="0.788285738909504" cy="0.744501156203675" r=".001" />
<circle cx="0.771083873326749" cy="0.882166579741835" r=".001" />
<circle cx="0.978882303522322" cy="0.366990402067593" r=".001" />
<circle cx="0.595553733141418" cy="0.571525094502292" r=".001" />
<circle cx="0.0296278440911486" cy="0.026168213712161" r=".001" />
<circle cx="0.431662721741962" cy="0.274266574456135" r=".001" />
<circle cx="0.556170653425038" cy="0.56744902485665" r=".001" />
<circle cx="0.55577297946029" cy="0.756024789173196" r=".001" />
<circle cx="0.872322906987673" cy="0.292302799159806" r=".001" />
<circle cx="0.484660913393899" cy="0.552622945365414" r=".001" />
<circle cx="0.718451890209746" cy="0.625775069934726" r=".001" />
<circle cx="0.0580598599146533" cy="0.182463902022945" r=".001" />
<circle cx="0.829472459402918" cy="0.642269652884089" r=".001" />
<circle cx="0.277240295361967" cy="0.472693984817283" r=".001" />
<circle cx="0.311655414086015" cy="0.391723405406175" r=".001" />
<circle cx="0.356743960353118" cy="0.273920911627457" r=".001" />
<circle cx="0.543365658973581" cy="0.816237128922459" r=".001" />
<circle cx="0.267757434286015" cy="0.584302870586413" r=".001" />
<circle cx="0.263685128847623" cy="0.234577937484239" r=".001" />
<circle cx="0.71312879353356" cy="0.39484523174194" r=".001" />
<circle cx="0.458603751535318" cy="0.938775209128629" r=".001" />
<circle cx="0.839955822033833" cy="0.107845285780002" r=".001" />
<circle cx="0.844147545748665" cy="0.823958658573396" r=".001" />
<circle cx="0.508388628966646" cy="0.889340350768137" r=".001" />
<circle cx="0.129651604106524" cy="0.230922183365514" r=".001" />
<circle cx="0.865301277474604" cy="0.779492133042567" r=".001" />
<circle cx="0.725697509755161" cy="0.282555003029934" r=".001" />
<circle cx="0.667428953435621" cy="0.303056933684942" r=".001" />
<circle cx="0.246464990130416" cy="0.0428012946029739" r=".001" />
<circle cx="0.937197116623938" cy="0.962048720013172" r=".001" />
<circle cx="0.604966636062766" cy="0.313355090678876" r=".001" />
<circle cx="0.370669790707996" cy="0.636626794645522" r=".001" />
<circle cx="0.974537621116038" cy="0.942657710248447" r=".001" />
<circle cx="0.533823475926116" cy="0.115983355488225" r=".001" />
<circle cx="0.606859857271228" cy="0.178354500665371" r=".001" />
<circle cx="0.441843921454751" cy="0.792045210944067" r=".001" />
<circle cx="0.874657231318817" cy="0.00132252435386349" r=".001" />
<circle cx="0.105602985939161" cy="0.804239858242966" r=".001" />
<circle cx="0.818075794106203" cy="0.211392280718691" r=".001" />
<circle cx="0.117284856892685" cy="0.468135611555297" r=".001" />
<circle cx="0.492855334601298" cy="0.952621311320335" r=".001" />
<circle cx="0.228802805188369" cy="0.764800042964765" r=".001" />
<circle cx="0.074026975079061" cy="0.884675959406941" r=".001" />
<circle cx="0.125812232165533" cy="0.637207235949845" r=".001" />
<circle cx="0.692480585114676" cy="0.0545076770485693" r=".001" />
<circle cx="0.518540836453926" cy="0.226563810251378" r=".001" />
<circle cx="0.557906242975303" cy="0.316721391460625" r=".001" />
<circle cx="0.138205097979483" cy="0.392242921388643" r=".001" />
<circle cx="0.938020985941758" cy="0.651043590330111" r=".001" />
<circle cx="0.952471760258224" cy="0.566966030127247" r=".001" />
<circle cx="0.86146599856222" cy="0.50884732874318" r=".001" />
<circle cx="0.681386401508707" cy="0.392430739399444" r=".001" />
<circle cx="0.034245502341971" cy="0.142196996840561" r=".001" />
<circle cx="0.620686332818511" cy="0.613850971031013" r=".001" />
<circle cx="0.904147244406413" cy="0.528028671946608" r=".001" />
<circle cx="0.554824760086536" cy="0.354579764638586" r=".001" />
<circle cx="0.274430948739049" cy="0.306268554943067" r=".001" />
<circle cx="0.687865208230509" cy="0.379476588727329" r=".001" />
<circle cx="0.5105157041918" cy="0.315826420590334" r=".001" />
<circle cx="0.63529244369791" cy="0.0389368218411477" r=".001" />
<circle cx="0.55788533109202" cy="0.189022257836847" r=".001" />
<circle cx="0.530486357148593" cy="0.781122552096122" r=".001" />
<circle cx="0.505532605428737" cy="0.796276401401407" r=".001" />
<circle cx="0.711001294788719" cy="0.960147619062596" r=".001" />
<circle cx="0.79967413879012" cy="0.502605522563606" r=".001" />
<circle cx="0.594892966728199" cy="0.950627445252422" r=".001" />
<circle cx="0.903008025944882" cy="0.480032917654178" r=".001" />
<circle cx="0.647271126407663" cy="0.617582237915073" r=".001" />
<circle cx="0.874401392712254" cy="0.130480669699999" r=".001" />
<circle cx="0.51128651909605" cy="0.0642821479498821" r=".001" />
<circle cx="0.134655017048413" cy="0.817727524547571" r=".001" />
<circle cx="0.753267952196257" cy="0.383971514001431" r=".001" />
<circle cx="0.411092568591638" cy="0.0308787800642492" r=".001" />
<circle cx="0.394217558113841" cy="0.234857958721108" r=".001" />
<circle cx="0.295483028754244" cy="0.142417198198082" r=".001" />
<circle cx="0.692982214242608" cy="0.317277403250145" r=".001" />
<circle cx="0.987671827326235" cy="0.558825977265052" r=".001" />
<circle cx="0.0619044667010122" cy="0.899149587707939" r=".001" />
<circle cx="0.0658394749638482" cy="0.15916022832662" r=".001" />
<circle cx="0.663499987314584" cy="0.0679469923542371" r=".001" />
<circle cx="0.661221296375626" cy="0.985581247420889" r=".001" />
<circle cx="0.114718389482224" cy="0.30726470863479" r=".001" />
<circle cx="0.311228588989319" cy="0.589172227217325" r=".001" />
<circle cx="0.849752950488" cy="0.742176374017319" r=".001" />
<circle cx="0.314155458884922" cy="0.78436396987788" r=".001" />
<circle cx="0.427430248025164" cy="0.173993321878186" r=".001" />
<circle cx="0.358107032312301" cy="0.756678710026485" r=".001" />
<circle cx="0.357315729685457" cy="0.0515371702098975" r=".001" />
<circle cx="0.996639019676362" cy="0.0725383952542913" r=".001" />
<circle cx="0.630323608434313" cy="0.287941743085611" r=".001" />
<circle cx="0.597176031968399" cy="0.618494764019665" r=".001" />
<circle cx="0.92345202714144" cy="0.330295049139053" r=".001" />
<circle cx="0.302021929749198" cy="0.45296136963983" r=".001" />
<circle cx="0.581034973566293" cy="0.890717594296802" r=".001" />
<circle cx="0.375260134447711" cy="0.979526386815202" r=".001" />
<circle cx="0.711493766309321" cy="0.0339761441346269" r=".001" />
<circle cx="0.824760563428523" cy="0.380988666277851" r=".001" />
<circle cx="0.66199088463242" cy="0.936303737020609" r=".001" />
<circle cx="0.102682976502091" cy="0.411802136212152" r=".001" />
<circle cx="0.404770293225869" cy="0.146213845155032" r=".001" />
<circle cx="0.919239354803633" cy="0.0986743485585961" r=".001" />
<circle cx="0.977569029454092" cy="0.919860649220539" r=".001" />
<circle cx="0.125120785749782" cy="0.700307796680853" r=".001" />
<circle cx="0.63368748784892" cy="0.515634996115821" r=".001" />
<circle cx="0.303102512596578" cy="0.123986650651595" r=".001" />
<circle cx="0.17061836713663" cy="0.825548310662128" r=".001" />
<circle cx="0.18723463646803" cy="0.475810830094197" r=".001" />
<circle cx="0.493189451383802" cy="0.520521093744136" r=".001" />
<circle cx="0.530150745101505" cy="0.260402924605351" r=".001" />
<circle cx="0.629731091427207" cy="0.884560223575249" r=".001" />
<circle cx="0.249952798464317" cy="0.0630254407777571" r=".001" />
<circle cx="0.537718248114164" cy="0.616206646162155" r=".001" />
<circle cx="0.995553239335432" cy="0.101035265242437" r=".001" />
<circle cx="0.316667067522477" cy="0.257413758084482" r=".001" />
<circle cx="0.00140948294168304" cy="0.471883147456886" r=".001" />
<circle cx="0.176919992752818" cy="0.258653411902671" r=".001" />
<circle cx="0.930070451041072" cy="0.0414774866781258" r=".001" />
<circle cx="0.307589189591543" cy="0.458642574360681" r=".001" />
<circle cx="0.750099373574795" cy="0.89033781717891" r=".001" />
<circle cx="0.837728386828235" cy="0.417365802559928" r=".001" />
<circle cx="0.790178574682326" cy="0.886853186790681" r=".001" />
<circle cx="0.412275918779873" cy="0.327388435946858" r=".001" />
<circle cx="0.936937942209294" cy="0.999048178788549" r=".001" />
<circle cx="0.607089620122299" cy="0.391789294778832" r=".001" />
<circle cx="0.557431875073089" cy="0.241083698471435" r=".001" />
<circle cx="0.91223507395981" cy="0.613991291211505" r=".001" />
<circle cx="0.772867263705205" cy="0.921444896034679" r=".001" />
<circle cx="0.32447536567496" cy="0.927560259785665" r=".001" />
<circle cx="0.723094374779972" cy="0.000183788982774047" r=".001" />
<circle cx="0.541650759993278" cy="0.800528062382483" r=".001" />
<circle cx="0.83649310368487" cy="0.647103342886574" r=".001" />
<circle cx="0.254463409371414" cy="0.692452181163432" r=".001" />
<circle cx="0.153017703939579" cy="0.43643203125216" r=".001" />
<circle cx="0.324353130772327" cy="0.602352144114604" r=".001" />
<circle cx="0.0486887680541308" cy="0.32200728613774" r=".001" />
<circle cx="0.537048267627416" cy="0.00165897940749602" r=".001" />
<circle cx="0.602937231630957" cy="0.556551833430312" r=".001" />
<circle cx="0.77550849680313" cy="0.70803717604403" r=".001" />
<circle cx="0.614231814361357" cy="0.886202742875476" r=".001" />
<circle cx="0.586976959188366" cy="0.427479241636874" r=".001" />
<circle cx="0.385803910443851" cy="0.644578175541675" r=".001" />
<circle cx="0.27848509959907" cy="0.706730216282608" r=".001" />
<circle cx="0.80659280936008" cy="0.157505342894275" r=".001" />
<circle cx="0.493287909557797" cy="0.917628906647579" r=".001" />
<circle cx="0.580464578383381" cy="0.158874164555293" r=".001" />
<circle cx="0.155357687648522" cy="0.82477100530528" r=".001" />
<circle cx="0.300130283165867" cy="0.609338588631211" r=".001" />
<circle cx="0.25636377907087" cy="0.0710121393723711" r=".001" />
<circle cx="0.214948774751772" cy="0.442800581704226" r=".001" />
<circle cx="0.0637718412229766" cy="0.0475355721836763" r=".001" />
<circle cx="0.251016342898065" cy="0.771444467701407" r=".001" />
<circle cx="0.392191818128527" cy="0.144349664588802" r=".001" />
<circle cx="0.0578154391477561" cy="0.0298306583816199" r=".001" />
<circle cx="0.873396805791121" cy="0.437813997619031" r=".001" />
<circle cx="0.481537721197025" cy="0.394121935611743" r=".001" />
<circle cx="0.0321581656078997" cy="0.950166013595421" r=".001" />
<circle cx="0.00745817522428283" cy="0.676441379441563" r=".001" />
<circle cx="0.101953406304492" cy="0.978633710727536" r=".001" />
<circle cx="0.931987347507441" cy="0.259812848730895" r=".001" />
<circle cx="0.151585318964624" cy="0.920800889387024" r=".001" />
<circle cx="0.581963073345147" cy="0.639901675232856" r=".001" />
<circle cx="0.323811427120351" cy="0.0662912590312601" r=".001" />
<circle cx="0.00101818425184312" cy="0.800268990093862" r=".001" />
<circle cx="0.97135481704267" cy="0.0460329356995288" r=".001" />
<circle cx="0.681058398781172" cy="0.133116926193814" r=".001" />
<circle cx="0.703408654827374" cy="0.858457053607765" r=".001" />
<circle cx="0.59071064865098" cy="0.483197893119076" r=".001" />
<circle cx="0.894339989107312" cy="0.471699943127604" r=".001" />
<circle cx="0.616890764586568" cy="0.334978266336229" r=".001" />
<circle cx="0.951251593739816" cy="0.0425691538515309" r=".001" />
<circle cx="0.194342821983366" cy="0.269199230816248" r=".001" />
<circle cx="0.562006436116878" cy="0.422676088018179" r=".001" />
<circle cx="0.391807720796091" cy="0.812204234446618" r=".001" />
<circle cx="0.552015676325741" cy="0.231333718800329" r=".001" />
<circle cx="0.312587823505208" cy="0.307967600563053" r=".001" />
<circle cx="0.746420722748883" cy="0.770793362342957" r=".001" />
<circle cx="0.339022004083628" cy="0.717451384332882" r=".001" />
<circle cx="0.0722706033349745" cy="0.115001314479656" r=".001" />
<circle cx="0.933226960090746" cy="0.44215159702879" r=".001" />
<circle cx="0.829040571196192" cy="0.00677091525305684" r=".001" />
<circle cx="0.535978004522828" cy="0.668509527944501" r=".001" />
<circle cx="0.719614260892374" cy="0.704189829218365" r=".001" />
<circle cx="0.0697024380819862" cy="0.00179231283231402" r=".001" />
<circle cx="0.560042660248815" cy="0.594942589518908" r=".001" />
<circle cx="0.850436318590422" cy="0.784686347694382" r=".001" />
<circle cx="0.0955064743220682" cy="0.482376311388606" r=".001" />
<circle cx="0.500571304872334" cy="0.963224992948149" r=".001" />
<circle cx="0.640576945676987" cy="0.690549498558525" r=".001" />
<circle cx="0.0857375700528245" cy="0.959025176810506" r=".001" />
<circle cx="0.260851670968268" cy="0.0537816065232164" r=".001" />
<circle cx="0.984801866381343" cy="0.0878287976315519" r=".001" />
<circle cx="0.425219230431129" cy="0.981591052257286" r=".001" />
<circle cx="0.454401992876679" cy="0.07878880904547" r=".001" />
<circle cx="0.816387336778295" cy="0.92022323326367" r=".001" />
<circle cx="0.934510480811195" cy="0.0837493586195777" r=".001" />
<circle cx="0.703026525674336" cy="0.980704402282342" r=".001" />
<circle cx="0.528166582803944" cy="0.571681261572074" r=".001" />
<circle cx="0.689192963913431" cy="0.349613500091721" r=".001" />
<circle cx="0.898806941575554" cy="0.760225791507345" r=".001" />
<circle cx="0.0829825561630066" cy="0.437268840094774" r=".001" />
<circle cx="0.887756936732156" cy="0.351568477393066" r=".001" />
<circle cx="0.712141999153236" cy="0.909131427297865" r=".001" />
<circle cx="0.2407369747914" cy="0.634393557184985" r=".001" />
<circle cx="0.983253575991245" cy="0.665908243362637" r=".001" />
<circle cx="0.927136211540496" cy="0.964998016093169" r=".001" />
<circle cx="0.884877115358936" cy="0.127698601139741" r=".001" />
<circle cx="0.0738806892244774" cy="0.116935793977611" r=".001" />
<circle cx="0.603557473214654" cy="0.494791228978002" r=".001" />
<circle cx="0.65466894650228" cy="0.498606844261523" r=".001" />
<circle cx="0.412896940761531" cy="0.925240649643598" r=".001" />
<circle cx="0.865986129078987" cy="0.181416328557255" r=".001" />
<circle cx="0.546081954369146" cy="0.225605233381131" r=".001" />
<circle cx="0.877582805924501" cy="0.59754539941266" r=".001" />
<circle cx="0.235600193340222" cy="0.900317592001954" r=".001" />
<circle cx="0.114087392522134" cy="0.586660820704914" r=".001" />
<circle cx="0.94277041240041" cy="0.466807303394901" r=".001" />
<circle cx="0.856306611155045" cy="0.766335163734134" r=".001" />
<circle cx="0.774640980056805" cy="0.303057876020574" r=".001" />
<circle cx="0.148877091334167" cy="0.433466559500808" r=".001" />
<circle cx="0.0454268940196307" cy="0.952730943272613" r=".001" />
<circle cx="0.371708343598211" cy="0.976116046488947" r=".001" />
<circle cx="0.0607068332116434" cy="0.536932480567884" r=".001" />
<circle cx="0.435673239574538" cy="0.0800854910209878" r=".001" />
<circle cx="0.239974395001116" cy="0.493354926162297" r=".001" />
<circle cx="0.160952112879155" cy="0.486028936400878" r=".001" />
<circle cx="0.229838868686844" cy="0.330757022479958" r=".001" />
<circle cx="0.705140971654782" cy="0.215339120118422" r=".001" />
<circle cx="0.35733352443744" cy="0.00130165406906571" r=".001" />
<circle cx="0.846638396797882" cy="0.701517847850845" r=".001" />
<circle cx="0.619671263342273" cy="0.301411369874188" r=".001" />
<circle cx="0.868999802708782" cy="0.193887991366672" r=".001" />
<circle cx="0.970771391467725" cy="0.231078305869758" r=".001" />
<circle cx="0.80908717221342" cy="0.838625147212433" r=".001" />
<circle cx="0.341475061330019" cy="0.488117826324782" r=".001" />
<circle cx="0.954267456651007" cy="0.575092516744299" r=".001" />
<circle cx="0.0932033804947032" cy="0.9135337500296" r=".001" />
<circle cx="0.93306886849879" cy="0.140892408154706" r=".001" />
<circle cx="0.25564913159295" cy="0.58072051285319" r=".001" />
<circle cx="0.224161599813367" cy="0.175065980138108" r=".001" />
<circle cx="0.317813293406164" cy="0.781764411979694" r=".001" />
<circle cx="0.797983387707401" cy="0.404268507240424" r=".001" />
<circle cx="0.736308911312964" cy="0.98726013718661" r=".001" />
<circle cx="0.244601130551313" cy="0.840934611243377" r=".001" />
<circle cx="0.981490149816427" cy="0.103136785102762" r=".001" />
<circle cx="0.674432748091501" cy="0.605465633647803" r=".001" />
<circle cx="0.474881382574583" cy="0.59023990223767" r=".001" />
<circle cx="0.902318987709787" cy="0.586983683939174" r=".001" />
<circle cx="0.372962748843452" cy="0.707854487583703" r=".001" />
<circle cx="0.6403282201133" cy="0.500492949343929" r=".001" />
<circle cx="0.8431225420095" cy="0.0263298682584434" r=".001" />
<circle cx="0.283918753339673" cy="0.694282656716901" r=".001" />
<circle cx="0.356145908437231" cy="0.677457504476919" r=".001" />
<circle cx="0.236118136589393" cy="0.162636698537959" r=".001" />
<circle cx="0.00127314356877015" cy="0.590858645621893" r=".001" />
<circle cx="0.884777637555356" cy="0.868546435240184" r=".001" />
<circle cx="0.0340951107750591" cy="0.232586909815168" r=".001" />
<circle cx="0.341417871109112" cy="0.562944627742233" r=".001" />
<circle cx="0.111742644020811" cy="0.416292857683885" r=".001" />
<circle cx="0.832518745924016" cy="0.575403899614237" r=".001" />
<circle cx="0.240099094739339" cy="0.411110039463026" r=".001" />
<circle cx="0.374268791367424" cy="0.461311640269422" r=".001" />
<circle cx="0.187136913943252" cy="0.403006375678899" r=".001" />
<circle cx="0.681845842277294" cy="0.227908901442824" r=".001" />
<circle cx="0.70982274899352" cy="0.97242764791811" r=".001" />
<circle cx="0.489448306553012" cy="0.0725526714938312" r=".001" />
<circle cx="0.638617448136873" cy="0.490992890102547" r=".001" />
<circle cx="0.865854132335937" cy="0.98804299825094" r=".001" />
<circle cx="0.762045471671815" cy="0.589761144763187" r=".001" />
<circle cx="0.183698440432149" cy="0.199387833704996" r=".001" />
<circle cx="0.0902571735646553" cy="0.252776945534038" r=".001" />
<circle cx="0.0735009060380598" cy="0.562123255351345" r=".001" />
<circle cx="0.195422975198301" cy="0.799444568972277" r=".001" />
<circle cx="0.603435674269004" cy="0.783053941881683" r=".001" />
<circle cx="0.374730124079125" cy="0.46063012835171" r=".001" />
<circle cx="0.663740188961651" cy="0.519442507733068" r=".001" />
<circle cx="0.894833327251053" cy="0.364722521773885" r=".001" />
<circle cx="0.894450116222995" cy="0.112295594214423" r=".001" />
<circle cx="0.419097884371102" cy="0.235300659294751" r=".001" />
<circle cx="0.723895865731929" cy="0.344133537050006" r=".001" />
<circle cx="0.333250831386909" cy="0.681281841274497" r=".001" />
<circle cx="0.133297366363816" cy="0.252778043704716" r=".001" />
<circle cx="0.341629855024397" cy="0.618816205324237" r=".001" />
<circle cx="0.533168050804203" cy="0.642162681287751" r=".001" />
<circle cx="0.753724163342515" cy="0.602721364545445" r=".001" />
<circle cx="0.736531758944775" cy="0.611503159669006" r=".001" />
<circle cx="0.995893910942105" cy="0.93052128773661" r=".001" />
<circle cx="0.00173779451283096" cy="0.668522457186761" r=".001" />
<circle cx="0.320917991527256" cy="0.596390685376278" r=".001" />
<circle cx="0.756624976075042" cy="0.93459884047558" r=".001" />
<circle cx="0.531361837910087" cy="0.0633622259827291" r=".001" />
<circle cx="0.121755524776926" cy="0.614106838000005" r=".001" />
<circle cx="0.942810122723717" cy="0.453505378397765" r=".001" />
<circle cx="0.142359339431462" cy="0.451891301342492" r=".001" />
<circle cx="0.279031744563301" cy="0.956534119145601" r=".001" />
<circle cx="0.588568937353426" cy="0.897416891663205" r=".001" />
<circle cx="0.780519026511275" cy="0.872172722777648" r=".001" />
<circle cx="0.866680399150535" cy="0.327958723524652" r=".001" />
<circle cx="0.416077459520583" cy="0.84095592952994" r=".001" />
<circle cx="0.528866360028143" cy="0.0431585469558016" r=".001" />
<circle cx="0.687869404428472" cy="0.107938521192281" r=".001" />
<circle cx="0.806438751541204" cy="0.0569038137182005" r=".001" />
<circle cx="0.415292735953503" cy="0.495641295316659" r=".001" />
<circle cx="0.70698192863544" cy="0.597958317730765" r=".001" />
<circle cx="0.952186282389778" cy="0.543692172277261" r=".001" />
<circle cx="0.396146329759059" cy="0.946871885010289" r=".001" />
<circle cx="0.243105898354944" cy="0.675884261735433" r=".001" />
<circle cx="0.671429225297128" cy="0.932836877791381" r=".001" />
<circle cx="0.743940917372374" cy="0.469243717260198" r=".001" />
<circle cx="0.3718177240826" cy="0.380380133202401" r=".001" />
<circle cx="0.634198378772997" cy="0.0782806827084528" r=".001" />
<circle cx="0.0508003417712466" cy="0.712744441493136" r=".001" />
<circle cx="0.625254621888576" cy="0.580613143978738" r=".001" />
<circle cx="0.371162400932175" cy="0.10781284483533" r=".001" />
<circle cx="0.541268402275822" cy="0.692957607418492" r=".001" />
<circle cx="0.611487643301313" cy="0.27537596764882" r=".001" />
<circle cx="0.315899422259537" cy="0.710048793986957" r=".001" />
<circle cx="0.762839002272212" cy="0.433976335743942" r=".001" />
<circle cx="0.0352388939130925" cy="0.159984528754421" r=".001" />
<circle cx="0.7492558208567" cy="0.154648266814981" r=".001" />
<circle cx="0.670317279205836" cy="0.0800182809532686" r=".001" />
<circle cx="0.840178219537389" cy="0.791396481469853" r=".001" />
<circle cx="0.514216491939639" cy="0.794791933087282" r=".001" />
<circle cx="0.802512132154742" cy="0.508635154537849" r=".001" />
<circle cx="0.480312411770587" cy="0.937891891052956" r=".001" />
<circle cx="0.43372604872334" cy="0.859080763360133" r=".001" />
<circle cx="0.0687663645669296" cy="0.276524153330058" r=".001" />
<circle cx="0.947193044355213" cy="0.267420855636864" r=".001" />
<circle cx="0.285454078090698" cy="0.772764998558458" r=".001" />
<circle cx="0.0721545457825492" cy="0.0817558166801788" r=".001" />
<circle cx="0.246575340008011" cy="0.603605089734259" r=".001" />
<circle cx="0.461505803817783" cy="0.403245927103917" r=".001" />
<circle cx="0.846859979031894" cy="0.441842592330531" r=".001" />
<circle cx="0.0525325139660389" cy="0.172130529568868" r=".001" />
<circle cx="0.261333672081523" cy="0.812396925376447" r=".001" />
<circle cx="0.833333770813095" cy="0.843484029696448" r=".001" />
<circle cx="0.319913263203137" cy="0.441035571413423" r=".001" />
<circle cx="0.168643867251486" cy="0.937523804164123" r=".001" />
<circle cx="0.898673576140428" cy="0.12768352578783" r=".001" />
<circle cx="0.523934669578079" cy="0.19640194080251" r=".001" />
<circle cx="0.447598924366066" cy="0.242895030437168" r=".001" />
<circle cx="0.389986726498389" cy="0.562235153727009" r=".001" />
<circle cx="0.986260482591067" cy="0.667811774680047" r=".001" />
<circle cx="0.198631216606127" cy="0.640319263655933" r=".001" />
<circle cx="0.288528194755077" cy="0.0947373180301412" r=".001" />
<circle cx="0.484281617470909" cy="0.298325372092499" r=".001" />
<circle cx="0.315640767768176" cy="0.562675660220265" r=".001" />
<circle cx="0.88851390256276" cy="0.0386983504797129" r=".001" />
<circle cx="0.0923523503236829" cy="0.920789213944985" r=".001" />
<circle cx="0.432762452369015" cy="0.370013574275013" r=".001" />
<circle cx="0.330207534431484" cy="0.359329488808726" r=".001" />
<circle cx="0.856746015717402" cy="0.586859019635746" r=".001" />
<circle cx="0.940150156432754" cy="0.00440913310104918" r=".001" />
<circle cx="0.500219289008552" cy="0.780685969556878" r=".001" />
<circle cx="0.726653826649514" cy="0.887868165811852" r=".001" />
<circle cx="0.908881307281899" cy="0.0704267093590332" r=".001" />
<circle cx="0.678505994996289" cy="0.939916827246449" r=".001" />
<circle cx="0.990707174290858" cy="0.626550790887812" r=".001" />
<circle cx="0.356540476336225" cy="0.339314045204048" r=".001" />
<circle cx="0.508675011546398" cy="0.121286773154488" r=".001" />
<circle cx="0.493378526600328" cy="0.938290617442888" r=".001" />
<circle cx="0.0450306911025642" cy="0.467262866923583" r=".001" />
<circle cx="0.460113591206099" cy="0.167601412571315" r=".001" />
<circle cx="0.339189246203215" cy="0.693731684434461" r=".001" />
<circle cx="0.193492553610628" cy="0.946967753076351" r=".001" />
<circle cx="0.317559140286189" cy="0.281380385531939" r=".001" />
<circle cx="0.316264506413322" cy="0.569351228429809" r=".001" />
<circle cx="0.883564130749317" cy="0.351651980475118" r=".001" />
<circle cx="0.902869562784748" cy="0.201210055596803" r=".001" />
<circle cx="0.00762260182215968" cy="0.543305460093954" r=".001" />
<circle cx="0.850532834640664" cy="0.717980321312467" r=".001" />
<circle cx="0.190646273358038" cy="0.857035838269788" r=".001" />
<circle cx="0.398245238404133" cy="0.762973567690025" r=".001" />
<circle cx="0.514684431862886" cy="0.998399172428911" r=".001" />
<circle cx="0.60731106190369" cy="0.632790782576819" r=".001" />
<circle cx="0.237736589110664" cy="0.980706237357403" r=".001" />
<circle cx="0.769505049441864" cy="0.32294749108469" r=".001" />
<circle cx="0.936681064759508" cy="0.784250828670842" r=".001" />
<circle cx="0.76291694883594" cy="0.549036877387124" r=".001" />
<circle cx="0.206039724978506" cy="0.418138727204173" r=".001" />
<circle cx="0.429901826781663" cy="0.0424042586978288" r=".001" />
<circle cx="0.737365301721947" cy="0.648620226924855" r=".001" />
<circle cx="0.532957809720674" cy="0.921568348823939" r=".001" />
<circle cx="0.54396767944608" cy="0.1863668792166" r=".001" />
<circle cx="0.757702059003794" cy="0.493729149321794" r=".001" />
<circle cx="0.171184580252881" cy="0.148360798031369" r=".001" />
<circle cx="0.410418554034838" cy="0.742500554574264" r=".001" />
<circle cx="0.909270517166032" cy="0.902396565963961" r=".001" />
<circle cx="0.812040447753493" cy="0.821974415555857" r=".001" />
<circle cx="0.473171030996266" cy="0.878670543266388" r=".001" />
<circle cx="0.160163187770852" cy="0.682463438155366" r=".001" />
<circle cx="0.953037391536423" cy="0.899214272688404" r=".001" />
<circle cx="0.63314507620753" cy="0.0945094581855557" r=".001" />
<circle cx="0.396515441141045" cy="0.97830675530593" r=".001" />
<circle cx="0.391047284301866" cy="0.675332899125436" r=".001" />
<circle cx="0.436931400591003" cy="0.222388708680747" r=".001" />
<circle cx="0.610728356654551" cy="0.431815142712921" r=".001" />
<circle cx="0.411942556020644" cy="0.383939571282745" r=".001" />
<circle cx="0.828596747056086" cy="0.957949689234169" r=".001" />
<circle cx="0.3595921140931" cy="0.168429048600139" r=".001" />
<circle cx="0.284221735704808" cy="0.91969691624071" r=".001" />
<circle cx="0.770700463048907" cy="0.565608469263445" r=".001" />
<circle cx="0.119215998765814" cy="0.249182523966425" r=".001" />
<circle cx="0.608959922223743" cy="0.17547719631569" r=".001" />
<circle cx="0.724664948144909" cy="0.491667945413766" r=".001" />
<circle cx="0.676922114633069" cy="0.765284881974161" r=".001" />
<circle cx="0.111146544556821" cy="0.706793661432073" r=".001" />
<circle cx="0.154346668754652" cy="0.557575526348195" r=".001" />
<circle cx="0.340443422953218" cy="0.939980058620634" r=".001" />
<circle cx="0.00153123592044118" cy="0.0818331641028678" r=".001" />
<circle cx="0.0779046686436722" cy="0.535916763055155" r=".001" />
<circle cx="0.945397344096715" cy="0.785665620490086" r=".001" />
<circle cx="0.547700257491517" cy="0.96475683815855" r=".001" />
<circle cx="0.436559162007224" cy="0.0982012120064937" r=".001" />
<circle cx="0.276684836896639" cy="0.639558413015493" r=".001" />
<circle cx="0.494657926114581" cy="0.761637579681725" r=".001" />
<circle cx="0.251131988388568" cy="0.702909770564943" r=".001" />
<circle cx="0.11556300978668" cy="0.130461097150935" r=".001" />
<circle cx="0.567223190045812" cy="0.499386235895855" r=".001" />
<circle cx="0.586284769097983" cy="0.806163553722179" r=".001" />
<circle cx="0.492010200131194" cy="0.49199492581856" r=".001" />
<circle cx="0.166523806016269" cy="0.59335913711211" r=".001" />
<circle cx="0.555873324788056" cy="0.554168114487823" r=".001" />
<circle cx="0.675501253780435" cy="0.886713193892582" r=".001" />
<circle cx="0.937653824878499" cy="0.718894198613341" r=".001" />
<circle cx="0.524119875805408" cy="0.423323890466172" r=".001" />
<circle cx="0.87515437256241" cy="0.703578572209466" r=".001" />
<circle cx="0.321727723795913" cy="0.94906279607023" r=".001" />
<circle cx="0.110209799514866" cy="0.479181707408188" r=".001" />
<circle cx="0.0814590121278478" cy="0.977419624397008" r=".001" />
<circle cx="0.760789198259577" cy="0.206689947087966" r=".001" />
<circle cx="0.432881046464143" cy="0.0837739644115132" r=".001" />
<circle cx="0.382482558457344" cy="0.430262509455716" r=".001" />
<circle cx="0.00131768075115097" cy="0.335521866349147" r=".001" />
<circle cx="0.0462583536311207" cy="0.167317546760302" r=".001" />
<circle cx="0.189160448295137" cy="0.658531688181831" r=".001" />
<circle cx="0.804685653233054" cy="0.659847352513154" r=".001" />
<circle cx="0.506002827830368" cy="0.473030713554202" r=".001" />
<circle cx="0.0591532326639914" cy="0.0024895364451254" r=".001" />
<circle cx="0.261706588103589" cy="0.477895786810599" r=".001" />
<circle cx="0.768371602342246" cy="0.611053746438486" r=".001" />
<circle cx="0.569310497339014" cy="0.342726636758975" r=".001" />
<circle cx="0.674119688686009" cy="0.77566387433896" r=".001" />
<circle cx="0.344841143123755" cy="0.493933740749476" r=".001" />
<circle cx="0.362428887422613" cy="0.106400200374978" r=".001" />
<circle cx="0.204611876590516" cy="0.506912576983346" r=".001" />
<circle cx="0.953941185467929" cy="0.0429161713898338" r=".001" />
<circle cx="0.0801644960154526" cy="0.584366988211947" r=".001" />
<circle cx="0.0309178242305173" cy="0.295187033727203" r=".001" />
<circle cx="0.975653827378206" cy="0.594775196636071" r=".001" />
<circle cx="0.393318367087719" cy="0.908173914901482" r=".001" />
<circle cx="0.166609423151794" cy="0.439276830372371" r=".001" />
<circle cx="0.803649849454718" cy="0.912233731631702" r=".001" />
<circle cx="0.939717371342024" cy="0.524937208816617" r=".001" />
<circle cx="0.769159743822659" cy="0.312674057921242" r=".001" />
<circle cx="0.822618997079285" cy="0.653080150102632" r=".001" />
<circle cx="0.937797576878257" cy="0.580669378125393" r=".001" />
<circle cx="0.975917361380024" cy="0.129461771131155" r=".001" />
<circle cx="0.996706003834905" cy="0.194172538864763" r=".001" />
<circle cx="0.794937228540913" cy="0.705399211824506" r=".001" />
<circle cx="0.282455788904105" cy="0.00174492627148624" r=".001" />
<circle cx="0.777744897505695" cy="0.54310899285084" r=".001" />
<circle cx="0.192568272916137" cy="0.0430358583306543" r=".001" />
<circle cx="0.793071285952845" cy="0.632613872555886" r=".001" />
<circle cx="0.0579563419602103" cy="0.907497318549659" r=".001" />
<circle cx="0.1647902312917" cy="0.480433666740502" r=".001" />
<circle cx="0.353768457056905" cy="0.555196402558209" r=".001" />
<circle cx="0.569304442725365" cy="0.841298596728969" r=".001" />
<circle cx="0.0278727767995584" cy="0.900850612902715" r=".001" />
<circle cx="0.912529215540669" cy="0.31335239938587" r=".001" />
<circle cx="0.676127615106314" cy="0.53605476548131" r=".001" />
<circle cx="0.861209215318677" cy="0.695410729858544" r=".001" />
<circle cx="0.234033237210884" cy="0.656908673161027" r=".001" />
<circle cx="0.999251668323662" cy="0.683097376347455" r=".001" />
<circle cx="0.555856121287665" cy="0.944763883831655" r=".001" />
<circle cx="0.0669304674241964" cy="0.22101054863851" r=".001" />
<circle cx="0.563493113155648" cy="0.110866994029706" r=".001" />
<circle cx="0.0256553330269433" cy="0.23301306096922" r=".001" />
<circle cx="0.744957189835677" cy="0.984931362244424" r=".001" />
<circle cx="0.833078568161948" cy="0.51545766754473" r=".001" />
<circle cx="0.421301636846909" cy="0.169640634152543" r=".001" />
<circle cx="0.57532442854767" cy="0.932441188170166" r=".001" />
<circle cx="0.964063146520918" cy="0.445627927819515" r=".001" />
<circle cx="0.700893004684712" cy="0.222442444522365" r=".001" />
<circle cx="0.694029472785719" cy="0.858060372852194" r=".001" />
<circle cx="0.453257096279142" cy="0.37697847704694" r=".001" />
<circle cx="0.51558164432706" cy="0.0756915160914673" r=".001" />
<circle cx="0.578407162079525" cy="0.739875090835802" r=".001" />
<circle cx="0.00640715527065439" cy="0.530850460193122" r=".001" />
<circle cx="0.0648013630262163" cy="0.396680548615613" r=".001" />
<circle cx="0.0855368330466071" cy="0.634668052861201" r=".001" />
<circle cx="0.0846652959571763" cy="0.664569252659312" r=".001" />
<circle cx="0.997057039396129" cy="0.141873556070422" r=".001" />
<circle cx="0.678804551491535" cy="0.281324597520744" r=".001" />
<circle cx="0.974248305060687" cy="0.405331558842704" r=".001" />
<circle cx="0.74661303562031" cy="0.345820894486543" r=".001" />
<circle cx="0.969184244055089" cy="0.719355016527643" r=".001" />
<circle cx="0.956476382473166" cy="0.940632429039844" r=".001" />
<circle cx="0.453998452068564" cy="0.375577766577777" r=".001" />
<circle cx="0.620103068200773" cy="0.319397376936998" r=".001" />
<circle cx="0.808224877961738" cy="0.134275248006745" r=".001" />
<circle cx="0.921411325414308" cy="0.357394535211391" r=".001" />
<circle cx="0.816096680032476" cy="0.001587001571977" r=".001" />
<circle cx="0.153527966656821" cy="0.824115684037601" r=".001" />
<circle cx="0.500832652209898" cy="0.968845412733302" r=".001" />
<circle cx="0.496411066445656" cy="0.762724946414487" r=".001" />
<circle cx="0.940256742103433" cy="0.449503642104872" r=".001" />
<circle cx="0.00159124370208126" cy="0.565102817557495" r=".001" />
<circle cx="0.938217795382645" cy="0.792958330940095" r=".001" />
<circle cx="0.839193275561083" cy="0.0652156572283147" r=".001" />
<circle cx="0.895961261793591" cy="0.479481034667742" r=".001" />
<circle cx="0.170867572788023" cy="0.38099543847418" r=".001" />
<circle cx="0.94173499972884" cy="0.438732988132202" r=".001" />
<circle cx="0.971768167067236" cy="0.199548487899499" r=".001" />
<circle cx="0.168495331160845" cy="0.683792304481841" r=".001" />
<circle cx="0.693630016837187" cy="0.496749898149126" r=".001" />
<circle cx="0.609749939422176" cy="0.926747618096712" r=".001" />
<circle cx="0.617209659947687" cy="0.2251613052455" r=".001" />
<circle cx="0.591588881271239" cy="0.619809063050354" r=".001" />
<circle cx="0.700479243773412" cy="0.599397864290985" r=".001" />
<circle cx="0.15219671441837" cy="0.542282894860207" r=".001" />
<circle cx="0.732743257282262" cy="0.201854589322174" r=".001" />
<circle cx="0.964115334704847" cy="0.489001577197172" r=".001" />
<circle cx="0.288146488084077" cy="0.060996809284525" r=".001" />
<circle cx="0.352871385926125" cy="0.18587332929711" r=".001" />
<circle cx="0.959518076362169" cy="0.0967633946836131" r=".001" />
<circle cx="0.630051862370724" cy="0.404715526545601" r=".001" />
<circle cx="0.565399155998346" cy="0.25118869096341" r=".001" />
<circle cx="0.679389582007492" cy="0.529691528592039" r=".001" />
<circle cx="0.0971257736415474" cy="0.235908817562397" r=".001" />
<circle cx="0.00891437939657536" cy="0.964332038890149" r=".001" />
<circle cx="0.699804871440914" cy="0.0311942184049556" r=".001" />
<circle cx="0.846868964323239" cy="0.699766539259301" r=".001" />
<circle cx="0.754874421166075" cy="0.103582142798381" r=".001" />
<circle cx="0.178138227358748" cy="0.79551925541449" r=".001" />
<circle cx="0.399749618970628" cy="0.20173415782498" r=".001" />
<circle cx="0.333780159538879" cy="0.173764056922622" r=".001" />
<circle cx="0.532020703619249" cy="0.614103906844143" r=".001" />
<circle cx="0.129383302618184" cy="0.98163524020876" r=".001" />
<circle cx="0.405104759094581" cy="0.889283196150878" r=".001" />
<circle cx="0.947042571406957" cy="0.335032848558271" r=".001" />
<circle cx="0.435609117626964" cy="0.333039175675218" r=".001" />
<circle cx="0.247500203027958" cy="0.787943611039282" r=".001" />
<circle cx="0.369508003848335" cy="0.598225942351043" r=".001" />
<circle cx="0.0383243020412358" cy="0.655848295404681" r=".001" />
<circle cx="0.757262167461018" cy="0.508739398933237" r=".001" />
<circle cx="0.893901777778016" cy="0.908154830823861" r=".001" />
<circle cx="0.98304375303287" cy="0.930898709098763" r=".001" />
<circle cx="0.384638223398401" cy="0.796260527241699" r=".001" />
<circle cx="0.299210863782175" cy="0.190120264130108" r=".001" />
<circle cx="0.715342277642751" cy="0.529907661765776" r=".001" />
<circle cx="0.306178503998904" cy="0.783164779848711" r=".001" />
<circle cx="0.0637090524829098" cy="0.999681181242593" r=".001" />
<circle cx="0.665050144563391" cy="0.152874037241354" r=".001" />
<circle cx="0.444614115397034" cy="0.87815684659958" r=".001" />
<circle cx="0.064127360369195" cy="0.160084928904162" r=".001" />
<circle cx="0.878219096290611" cy="0.0423193811019331" r=".001" />
<circle cx="0.312149149833854" cy="0.833853938516732" r=".001" />
<circle cx="0.511430058666324" cy="0.537034643901848" r=".001" />
<circle cx="0.0853979775894622" cy="0.624409024553053" r=".001" />
<circle cx="0.00129231450067557" cy="0.650804094642481" r=".001" />
<circle cx="0.200341594384437" cy="0.982157164836273" r=".001" />
<circle cx="0.739766489976493" cy="0.773605406919984" r=".001" />
<circle cx="0.159078595698542" cy="0.790028607851021" r=".001" />
<circle cx="0.644755804474034" cy="0.740806590604208" r=".001" />
<circle cx="0.165466795075215" cy="0.275472232439846" r=".001" />
<circle cx="0.772201181268972" cy="0.29103395787223" r=".001" />
<circle cx="0.332507122208408" cy="0.203194402129533" r=".001" />
<circle cx="0.168437371446249" cy="0.0492032778185632" r=".001" />
<circle cx="0.596527221885648" cy="0.721545376358385" r=".001" />
<circle cx="0.632286842646867" cy="0.324040072171982" r=".001" />
<circle cx="0.0742785404846806" cy="0.416216770807246" r=".001" />
<circle cx="0.548717167643265" cy="0.733295772471124" r=".001" />
<circle cx="0.601673754348067" cy="0.267159805374909" r=".001" />
<circle cx="0.0012759517617642" cy="0.756112949529552" r=".001" />
<circle cx="0.787118231518246" cy="0.0515312035827051" r=".001" />
<circle cx="0.065276061122848" cy="0.292831601655749" r=".001" />
<circle cx="0.610925137505088" cy="0.670810673843441" r=".001" />
<circle cx="0.460388709598025" cy="0.985811111384493" r=".001" />
<circle cx="0.870969109478619" cy="0.178424973586523" r=".001" />
<circle cx="0.37744271598503" cy="0.734045513923363" r=".001" />
<circle cx="0.282473444031577" cy="0.360297694193967" r=".001" />
<circle cx="0.617533936946732" cy="0.598574726621621" r=".001" />
<circle cx="0.908710783939664" cy="0.380385170571152" r=".001" />
<circle cx="0.403260923924609" cy="0.239667930028489" r=".001" />
<circle cx="0.654622661661787" cy="0.692746376451559" r=".001" />
<circle cx="0.0759802262906568" cy="0.510828930023848" r=".001" />
<circle cx="0.575249274168311" cy="0.477942377716381" r=".001" />
<circle cx="0.98107818364743" cy="0.734823629576667" r=".001" />
<circle cx="0.716852837562296" cy="0.762107943597776" r=".001" />
<circle cx="0.200382866410141" cy="0.14475826041496" r=".001" />
<circle cx="0.555286113366872" cy="0.990048322128679" r=".001" />
<circle cx="0.661708506666049" cy="0.645970331775871" r=".001" />
<circle cx="0.96119752379138" cy="0.65797703410248" r=".001" />
<circle cx="0.486659557448949" cy="0.364983907945458" r=".001" />
<circle cx="0.0958959932596137" cy="0.0664398916125108" r=".001" />
<circle cx="0.265355240490425" cy="0.838503390995058" r=".001" />
<circle cx="0.0019067580485423" cy="0.869605365454184" r=".001" />
<circle cx="0.634925902714574" cy="0.362477022474593" r=".001" />
<circle cx="0.817112411914177" cy="0.804105972791753" r=".001" />
<circle cx="0.029862512729256" cy="0.188379390332969" r=".001" />
<circle cx="0.188849705913011" cy="0.350278595017066" r=".001" />
<circle cx="0.537078002834509" cy="0.406392897501718" r=".001" />
<circle cx="0.0570411001884956" cy="0.572887628159329" r=".001" />
<circle cx="0.275496712117576" cy="0.494087978900311" r=".001" />
<circle cx="0.516053375037327" cy="0.60976267704276" r=".001" />
<circle cx="0.805883724534088" cy="0.401112406600078" r=".001" />
<circle cx="0.337591314693821" cy="0.218406192133195" r=".001" />
<circle cx="0.516342234986258" cy="0.467527861018439" r=".001" />
<circle cx="0.100475180727468" cy="0.0863150771650609" r=".001" />
<circle cx="0.305452028801543" cy="0.48362863180617" r=".001" />
<circle cx="0.502735397664491" cy="0.784927928696796" r=".001" />
<circle cx="0.859528538189029" cy="0.355819408037675" r=".001" />
<circle cx="0.473794884259316" cy="0.96479526820567" r=".001" />
<circle cx="0.382207555705893" cy="0.475518185917792" r=".001" />
<circle cx="0.703277316625059" cy="0.706437955702121" r=".001" />
<circle cx="0.350888352002631" cy="0.340812925978369" r=".001" />
<circle cx="0.216212794246584" cy="0.553697993619089" r=".001" />
<circle cx="0.141005475633282" cy="0.864088293153912" r=".001" />
<circle cx="0.680431209245409" cy="0.251110203413482" r=".001" />
<circle cx="0.649279719015755" cy="0.23902817469785" r=".001" />
<circle cx="0.462183405642659" cy="0.31147184740481" r=".001" />
<circle cx="0.162779429207408" cy="0.128892255129472" r=".001" />
<circle cx="0.735081271274492" cy="0.372524237370136" r=".001" />
<circle cx="0.0416873375223652" cy="0.181987296786374" r=".001" />
<circle cx="0.582995542953878" cy="0.621274781814911" r=".001" />
<circle cx="0.518123190659654" cy="0.652657491598262" r=".001" />
<circle cx="0.36041463794329" cy="0.0203938381458855" r=".001" />
<circle cx="0.347351500435042" cy="0.895379876895205" r=".001" />
<circle cx="0.127894564304849" cy="0.453357216685184" r=".001" />
<circle cx="0.795464501914555" cy="0.159771907916991" r=".001" />
<circle cx="0.762689221727651" cy="0.394236293083772" r=".001" />
<circle cx="0.701555733233977" cy="0.915225414699947" r=".001" />
<circle cx="0.0556374954964518" cy="0.125552486717929" r=".001" />
<circle cx="0.132997337156215" cy="0.610825903683661" r=".001" />
<circle cx="0.398218781861612" cy="0.585325417583995" r=".001" />
<circle cx="0.558337046967228" cy="0.580175057202254" r=".001" />
<circle cx="0.394817275697132" cy="0.474893425544529" r=".001" />
<circle cx="0.920296670141315" cy="0.7483088995034" r=".001" />
<circle cx="0.214227813491828" cy="0.545435386023179" r=".001" />
<circle cx="0.506265534817874" cy="0.921320998573051" r=".001" />
<circle cx="0.733987608908134" cy="0.887162947895938" r=".001" />
<circle cx="0.918547629024321" cy="0.0364108213348402" r=".001" />
<circle cx="0.497049156863749" cy="0.34529651488311" r=".001" />
<circle cx="0.652572853253691" cy="0.634358518240376" r=".001" />
<circle cx="0.361565227843268" cy="0.796225553709199" r=".001" />
<circle cx="0.0375787359605262" cy="0.56698054437021" r=".001" />
<circle cx="0.103207539430155" cy="0.241348203167071" r=".001" />
<circle cx="0.398291941274966" cy="0.163672190424975" r=".001" />
<circle cx="0.450681689363872" cy="0.461275740498131" r=".001" />
<circle cx="0.903396741252553" cy="0.614044860902226" r=".001" />
<circle cx="0.377252576272678" cy="0.156288297681904" r=".001" />
<circle cx="0.400703143776088" cy="0.553894360826789" r=".001" />
<circle cx="0.415602133109555" cy="0.0576783728162908" r=".001" />
<circle cx="0.651678374305934" cy="0.910893099130931" r=".001" />
<circle cx="0.244775066726941" cy="0.797082213263913" r=".001" />
<circle cx="0.399264717536528" cy="0.131710548665424" r=".001" />
<circle cx="0.454023747465381" cy="0.375865120140354" r=".001" />
<circle cx="0.0906821461593985" cy="0.396584082363603" r=".001" />
<circle cx="0.809860737601934" cy="0.783509200526744" r=".001" />
<circle cx="0.367338510856843" cy="0.269162994777773" r=".001" />
<circle cx="0.333511999506097" cy="0.712790137002024" r=".001" />
<circle cx="0.491301150855495" cy="0.13283368056085" r=".001" />
<circle cx="0.283305895884251" cy="0.840987216209363" r=".001" />
<circle cx="0.144404420355318" cy="0.44943013897587" r=".001" />
<circle cx="0.680527998058036" cy="0.861737221696607" r=".001" />
<circle cx="0.78248562541717" cy="0.327592768682024" r=".001" />
<circle cx="0.221239766317819" cy="0.323331913702255" r=".001" />
<circle cx="0.302090040940886" cy="0.607036372368142" r=".001" />
<circle cx="0.386945671519324" cy="0.45880975239637" r=".001" />
<circle cx="0.857021840695925" cy="0.918226968783074" r=".001" />
<circle cx="0.863368601749738" cy="0.0742693338299674" r=".001" />
<circle cx="0.502224737477935" cy="0.246672972847151" r=".001" />
<circle cx="0.261652754579014" cy="0.328223761996803" r=".001" />
</g></svg>
